# xmcd
#
# Track frame offsets: 
#        150
#        15628
#        28666
#        44966
#        64671
#        92544
#        109014
#        129104
#        146292
#        166815
#        180014
#        216255
#
# Disc length: 3087 seconds
#
# Revision: 1
# Processed by: cddbd v1.5.1PL0 Copyright (c) Steve Scherf et al.
# Submitted via: ExactAudioCopy v0.95a5
#
DISCID=950c0d0c
DTITLE=Jamie Wood - Flyin' High
DYEAR=2001
DGENRE=Blues
TTITLE0=Flyin' High
TTITLE1=Early In The Mornin'
TTITLE2=Aeroplane Blues
TTITLE3=Jumpin' With J.R.
TTITLE4=In The Mood For Love
TTITLE5=As Long As I'm Movin'
TTITLE6=When The Blues Come Around
TTITLE7=That's My Baby
TTITLE8=They Raided The Joint
TTITLE9=Blame It On Murphy
TTITLE10=Learnin' How To Cheat On You
TTITLE11=Mojo Boogie
EXTD=YEAR: 2003
EXTT0=
EXTT1=
EXTT2=
EXTT3=
EXTT4=
EXTT5=
EXTT6=
EXTT7=
EXTT8=
EXTT9=
EXTT10=
EXTT11=
PLAYORDER=
